HIERARCHY
ROOT Hips
{
	OFFSET 0.000000 0.000000 0.000000
	CHANNELS 6 Xposition Yposition Zposition Zrotation Yrotation Xrotation
	JOINT LHipJoint
	{
		OFFSET 0.000000 0.000000 0.000000
		CHANNELS 3 Zrotation Yrotation Xrotation
		JOINT LeftUpLeg
		{
			OFFSET 0.076937 -0.101296 0.047373
			CHANNELS 3 Zrotation Yrotation Xrotation
			JOINT LeftLeg
			{
				OFFSET 0.138181 -0.379650 0.000000
				CHANNELS 3 Zrotation Yrotation Xrotation
				JOINT LeftFoot
				{
					OFFSET 0.144621 -0.397343 0.000000
					CHANNELS 3 Zrotation Yrotation Xrotation
					JOINT LeftToeBase
					{
						OFFSET 0.008898 -0.024446 0.131094
						CHANNELS 3 Zrotation Yrotation Xrotation
						End Site
						{
							OFFSET 0.000000 0.000000 0.000000
						}
					}
				}
			}
		}
	}
	JOINT RHipJoint
	{
		OFFSET 0.000000 0.000000 0.000000
		CHANNELS 3 Zrotation Yrotation Xrotation
		JOINT RightUpLeg
		{
			OFFSET -0.073689 -0.101296 0.047373
			CHANNELS 3 Zrotation Yrotation Xrotation
			JOINT RightLeg
			{
				OFFSET -0.143511 -0.394292 0.000000
				CHANNELS 3 Zrotation Yrotation Xrotation
				JOINT RightFoot
				{
					OFFSET -0.144963 -0.398282 0.000000
					CHANNELS 3 Zrotation Yrotation Xrotation
					JOINT RightToeBase
					{
						OFFSET -0.009298 -0.025546 0.133386
						CHANNELS 3 Zrotation Yrotation Xrotation
						End Site
						{
							OFFSET 0.000000 0.000000 0.000000
						}
					}
				}
			}
		}
	}
	JOINT LowerBack
	{
		OFFSET 0.000000 0.000000 0.000000
		CHANNELS 3 Zrotation Yrotation Xrotation
		JOINT Spine
		{
			OFFSET 0.001596 0.114897 -0.010915
			CHANNELS 3 Zrotation Yrotation Xrotation
			JOINT Spine1
			{
				OFFSET 0.003201 0.115645 -0.002413
				CHANNELS 3 Zrotation Yrotation Xrotation
				JOINT Neck
				{
					OFFSET 0.000000 0.000000 0.000000
					CHANNELS 3 Zrotation Yrotation Xrotation
					JOINT Neck1
					{
						OFFSET -0.003058 0.098565 0.009709
						CHANNELS 3 Zrotation Yrotation Xrotation
						JOINT Head
						{
							OFFSET 0.005874 0.099418 -0.006997
							CHANNELS 3 Zrotation Yrotation Xrotation
							End Site
							{
								OFFSET 0.000000 0.000000 0.000000
							}
						}
					}
				}
				JOINT LeftShoulder
				{
					OFFSET 0.000000 0.000000 0.000000
					CHANNELS 3 Zrotation Yrotation Xrotation
					JOINT LeftArm
					{
						OFFSET 0.189788 0.067783 -0.017566
						CHANNELS 3 Zrotation Yrotation Xrotation
						JOINT LeftForeArm
						{
							OFFSET 0.281260 -0.000000 -0.000000
							CHANNELS 3 Zrotation Yrotation Xrotation
							JOINT LeftHand
							{
								OFFSET 0.196626 -0.000000 -0.000000
								CHANNELS 3 Zrotation Yrotation Xrotation
								JOINT LeftFingerBase
								{
									OFFSET 0.000000 0.000000 0.000000
									CHANNELS 3 Zrotation Yrotation Xrotation
									JOINT LeftHandIndex1
									{
										OFFSET 0.040372 -0.000000 -0.000000
										CHANNELS 3 Zrotation Yrotation Xrotation
										End Site
										{
											OFFSET 0.000000 0.000000 0.000000
										}
									}
								}
								JOINT LThumb
								{
									OFFSET 0.000000 0.000000 0.000000
									CHANNELS 3 Zrotation Yrotation Xrotation
									End Site
									{
										OFFSET 0.000000 0.000000 0.000000
									}
								}
							}
						}
					}
				}
				JOINT RightShoulder
				{
					OFFSET 0.000000 0.000000 0.000000
					CHANNELS 3 Zrotation Yrotation Xrotation
					JOINT RightArm
					{
						OFFSET -0.177042 0.077557 -0.022840
						CHANNELS 3 Zrotation Yrotation Xrotation
						JOINT RightForeArm
						{
							OFFSET -0.295874 -0.000000 -0.000000
							CHANNELS 3 Zrotation Yrotation Xrotation
							JOINT RightHand
							{
								OFFSET -0.194403 -0.000000 -0.000000
								CHANNELS 3 Zrotation Yrotation Xrotation
								JOINT RightFingerBase
								{
									OFFSET 0.000000 0.000000 0.000000
									CHANNELS 3 Zrotation Yrotation Xrotation
									JOINT RightHandIndex1
									{
										OFFSET -0.035138 -0.000000 -0.000000
										CHANNELS 3 Zrotation Yrotation Xrotation
										End Site
										{
											OFFSET 0.000000 0.000000 0.000000
										}
									}
								}
								JOINT RThumb
								{
									OFFSET 0.000000 0.000000 0.000000
									CHANNELS 3 Zrotation Yrotation Xrotation
									End Site
									{
										OFFSET 0.000000 0.000000 0.000000
									}
								}
							}
						}
					}
				}
			}
		}
	}
}
MOTION
Frames: 7
Frame Time: 0.033333
19.305763 0.938934 -6.878051 178.439058 -0.586828 -174.080354 -2.206830 20.784411 -7.769549 -12.631680 -12.374999 -27.138473 24.168921 1.209378 62.692652 31.669484 -6.246901 7.628749 -8.005729 6.139145 -8.587505 5.863878 -26.621054 -3.829562 36.064549 3.761943 -4.163671 -8.642547 -8.058162 32.990797 -49.412084 17.892157 -15.055824 3.420986 -7.469004 -14.098814 15.158351 -2.366612 31.499906 -10.862180 -2.459441 9.583314 -1.736803 3.376388 -28.692802 -2.076049 1.282897 -13.535592 9.278572 1.577223 11.435960 -0.872311 -2.553208 -8.116141 6.981300 28.894825 2.512636 -70.308099 -8.551369 37.475883 -5.107899 -46.039559 16.912381 6.439082 -16.269618 8.775522 -2.955682 14.335133 0.235048 -0.003302 -0.021622 0.008909 -0.001516 -0.001888 -0.000060 -7.861861 -26.196885 -4.911664 86.438988 3.777363 52.589969 8.357045 72.055048 14.258868 -7.495662 16.485549 6.533966 2.642950 -13.333054 -0.142179 -0.020662 -0.073332 0.028066 -0.006497 -0.005226 0.020815 
19.306755 0.943731 -6.893886 178.706655 5.687825 -173.972619 -2.078549 20.786146 -9.117078 -15.958747 -13.554445 -26.390797 21.515600 -0.174937 56.423995 29.107868 -5.789427 5.038064 -7.591360 4.268321 -8.739860 4.800618 -26.489185 -1.925129 35.756265 3.794354 -2.235952 -7.921841 -7.197526 30.807658 -49.039345 18.751632 -15.606515 3.347009 -6.982712 -14.448469 15.079444 -2.072258 31.920632 -11.074402 -2.181179 9.646126 -2.682842 3.719739 -29.573557 -2.636534 2.932369 -13.063699 9.607735 2.963606 11.863210 -0.652895 -2.128080 -8.083510 6.551175 27.943858 3.410037 -69.967267 -8.166297 38.330074 -5.178414 -46.267211 16.862343 6.288978 -17.343117 8.755377 -3.298684 14.612169 0.198291 -0.006010 -0.018711 0.008617 -0.001458 0.001513 -0.000192 -7.408163 -27.628144 -6.371207 86.431950 3.542602 54.515392 7.593258 75.985932 13.726275 -7.709914 16.574847 6.758989 2.961950 -13.191450 -0.207169 -0.019510 -0.072990 0.026299 -0.006924 -0.005122 0.022302 
19.310386 0.947897 -6.913550 179.083170 11.171152 -173.846515 -2.358007 21.305510 -10.225128 -19.498061 -13.817408 -25.710515 17.835166 -1.276948 49.272891 28.030191 -8.949920 1.073963 -7.490560 2.998692 -9.855940 3.969311 -26.246155 0.043172 34.364474 3.140454 -0.509708 -7.187636 -6.913306 29.284541 -48.399372 20.026348 -16.892415 3.500151 -7.014604 -15.125518 14.877613 -1.709071 32.426281 -10.940516 -1.775733 9.359205 -3.310920 3.807789 -30.627047 -3.388271 4.916768 -12.841740 9.865392 4.838954 12.036175 -0.352073 -1.277967 -8.204045 6.343004 27.227916 4.126790 -69.774504 -7.727170 39.643344 -5.115060 -45.495916 16.580635 5.996612 -17.380204 8.405409 -3.448023 14.809805 0.204994 -0.007584 -0.015825 0.008309 -0.000743 0.003611 -0.000772 -6.818388 -29.587542 -7.913545 85.783605 3.933557 56.245891 7.147760 77.610985 13.949906 -7.853074 16.510406 7.025781 3.330813 -13.095762 -0.278656 -0.018431 -0.069596 0.024337 -0.007978 -0.004241 0.024842 
19.316698 0.948660 -6.937483 179.247499 15.315703 -173.908738 -3.104576 21.904825 -10.736459 -22.540896 -13.726726 -25.233801 14.047315 -2.210394 42.298776 28.481249 -12.975611 -2.207502 -7.872939 2.438666 -10.261967 3.252447 -26.301196 1.650855 32.202277 1.774193 0.553991 -6.732437 -7.106640 29.217001 -47.134648 21.080566 -18.181100 4.136495 -7.738345 -16.079582 14.544890 -1.241652 32.878658 -10.492720 -1.301205 8.975984 -3.648415 3.664206 -31.626985 -4.150772 6.779241 -12.724793 9.964148 6.633243 11.737534 -0.105545 -0.381041 -8.604320 6.239894 26.677912 4.785320 -69.748003 -7.379806 41.184225 -5.048755 -44.865340 16.413736 5.699253 -16.650321 7.983617 -3.623620 14.896066 0.216952 -0.007737 -0.014446 0.008267 -0.000173 0.004553 -0.001668 -6.310343 -31.581777 -9.137811 85.132605 4.444334 57.142886 6.292412 78.104935 14.059906 -8.062057 16.643717 7.252718 3.523958 -12.890111 -0.324779 -0.018141 -0.065853 0.024405 -0.007372 -0.002665 0.025554 
19.325818 0.939968 -6.965040 179.347174 18.013778 -173.631544 -3.801929 22.364826 -10.979323 -24.233563 -13.345248 -25.313765 11.031635 -3.488602 37.239291 27.759732 -16.847165 -4.112943 -8.849504 2.304025 -10.696620 3.597513 -26.317139 2.215859 29.680949 0.238214 0.468943 -6.804173 -7.791520 31.431063 -46.593478 22.442464 -19.701830 4.963778 -8.740569 -16.941971 14.362937 -1.232402 34.769389 -9.850133 -1.259193 7.804721 -3.699719 3.478711 -31.535501 -4.277689 6.725493 -12.900658 9.389901 6.694260 10.146727 -0.162829 0.067515 -9.540863 6.695698 26.467029 4.731913 -69.715185 -7.698047 41.773132 -5.167155 -46.966601 15.641844 6.066263 -15.627909 7.907603 -3.652651 14.728857 0.247463 -0.007852 -0.013382 0.009373 0.001215 0.004974 -0.000871 -6.830295 -31.792553 -8.936874 84.312401 5.855405 55.632594 5.793971 80.890964 14.465924 -8.375358 16.724104 7.302576 3.033052 -12.463483 -0.314003 -0.018906 -0.063329 0.024532 -0.007889 -0.001671 0.024738 
19.337865 0.922688 -6.995444 179.397825 20.260646 -173.427699 -4.628246 23.392002 -11.812267 -25.905448 -13.336919 -26.121406 9.785586 -3.981888 36.385123 27.221523 -19.055468 -5.273422 -9.770668 2.480171 -11.322366 4.496133 -26.273848 2.089215 27.304650 -0.686607 -0.240564 -8.239301 -9.177340 35.745792 -46.079354 22.864004 -21.153467 5.587700 -9.851816 -17.844751 14.101440 -2.030979 38.848875 -8.985373 -1.681956 5.804270 -3.850536 3.402482 -29.569869 -3.978853 4.953121 -13.159979 8.241899 5.215285 7.365477 -0.492692 0.106288 -10.942883 7.441088 25.971474 4.271130 -69.943075 -8.246107 39.615321 -5.514280 -52.585567 15.043922 7.243405 -15.057744 8.554709 -3.549321 14.495780 0.304806 -0.006302 -0.013455 0.010442 0.002804 0.005363 -0.000295 -8.045728 -29.501774 -7.503343 83.665662 8.327296 51.662795 11.231595 85.346531 20.035962 -8.895179 17.931200 7.553507 2.123982 -12.035988 -0.295796 -0.020362 -0.061324 0.024833 -0.009110 -0.001120 0.022277 
19.353218 0.904105 -7.029270 179.422305 22.060497 -173.325693 -5.766894 24.821094 -13.479339 -28.166307 -13.499440 -26.912622 9.748675 -3.555027 38.522475 27.644090 -20.293086 -6.532580 -10.310683 3.192451 -11.975622 5.434385 -25.964306 2.042914 24.822516 -1.134930 -1.112887 -9.816226 -10.443270 40.477314 -44.758611 23.138386 -21.151540 6.485323 -11.155819 -19.161836 13.771549 -3.441549 43.993607 -8.291151 -2.460353 3.526542 -4.286795 3.407809 -26.164646 -3.212449 2.104805 -13.637202 7.737527 2.551532 4.003462 -0.881511 -1.058980 -12.522415 8.252756 25.446072 3.587075 -70.604734 -9.009128 36.563145 -6.216768 -60.547265 15.747599 8.913225 -15.729388 10.032687 -3.343704 13.897896 0.421171 -0.005214 -0.013277 0.010505 0.004005 0.006086 0.000494 -9.952661 -25.460858 -5.566286 84.533194 11.911809 46.370330 106.258845 88.238082 115.208576 -9.650408 19.926205 8.225486 0.977586 -11.478000 -0.252856 -0.021959 -0.060075 0.026810 -0.010187 -0.000474 0.022613 
